Video
ID : 0
Format : MPEG-4 Visual

Codec ID : XVID
Codec ID/Hint : XviD
Duration : 1h 32mn
Bit rate : 943 Kbps
Width : 640 pixels
Height : 272 pixels

Stream size : 626 MiB (89%)
Writing library : XviD 1.1.2 (UTC 2006-11-01)

Audio
ID : 1
Format : MPEG Audio

Codec ID/Hint : MP3
Duration : 1h 32mn

Bit rate : 99.9 Kbps
Channel(s) : 2 channels
Sampling rate : 48.0 KHz
Compression mode : Lossy
Stream size : 66.3 MiB (9%)
Alignment : Aligned on interleaves
Interleave, duration : 24 ms (0.60 video frame)
Interleave, preload duration : 169 ms



Galek fi khater ness el hit & run
